<svg id="icone_calendario_pequeno" data-name="icone/calendario/pequeno" xmlns="http://www.w3.org/2000/svg" width="20" height="20" viewBox="0 0 20 20">
  <rect id="borda" width="20" height="20" fill="none"/>
  <path id="icone_calendario" data-name="icone/calendario" d="M15.657,2.552H14.9V1.776a.759.759,0,1,0-1.517,0v.776H5.794V1.776a.759.759,0,1,0-1.517,0v.776H3.517A1.54,1.54,0,0,0,2,4.1V16.52a1.54,1.54,0,0,0,1.517,1.552h12.14a1.54,1.54,0,0,0,1.517-1.552V4.1A1.54,1.54,0,0,0,15.657,2.552ZM14.9,16.52H4.276a.77.77,0,0,1-.759-.776V6.432h12.14v9.312A.77.77,0,0,1,14.9,16.52Z" transform="translate(0.561 0.707)" fill="rgba(0,0,0,0.7)"/>
</svg>
