<svg xmlns="http://www.w3.org/2000/svg" viewBox="0 0 20 20"><path data-name="icone/configurar" d="M17.713 10c0-.23-.01-.45-.031-.68l1.913-1.41a.988.988 0 0 0 .267-1.3l-1.923-3.23a1.029 1.029 0 0 0-1.286-.42l-2.211.91a7.859 7.859 0 0 0-1.2-.68l-.3-2.31A1.022 1.022 0 0 0 11.923 0H8.087a1.025 1.025 0 0 0-1.028.88l-.3 2.31a7.859 7.859 0 0 0-1.2.68l-2.213-.91a1.029 1.029 0 0 0-1.286.42L.137 6.62a.99.99 0 0 0 .267 1.3l1.913 1.41a7.367 7.367 0 0 0 0 1.35L.404 12.09a.988.988 0 0 0-.267 1.3l1.923 3.23a1.029 1.029 0 0 0 1.286.42l2.211-.91a7.859 7.859 0 0 0 1.2.68l.3 2.31a1.022 1.022 0 0 0 1.018.88h3.838a1.022 1.022 0 0 0 1.018-.88l.3-2.31a7.859 7.859 0 0 0 1.2-.68l2.211.91a1.029 1.029 0 0 0 1.286-.42l1.923-3.23a.99.99 0 0 0-.267-1.3l-1.913-1.41a5.028 5.028 0 0 0 .042-.68Zm-7.672 3.5a3.5 3.5 0 1 1 3.6-3.5 3.555 3.555 0 0 1-3.6 3.5Z"/></svg>