<svg xmlns="http://www.w3.org/2000/svg" width="24" height="24" viewBox="0 0 24 24">
  <g id="Grupo_3256" data-name="Grupo 3256" transform="translate(-1760 -14.148)">
    <rect id="Retângulo_2125" data-name="Retângulo 2125" width="24" height="24" transform="translate(1760 14.148)" fill="none"/>
    <path id="arrow-expand-all" d="M10.583,14.772l1.645,1.645-5.25,5.25h4.188V24H3V15.833H5.333v4.188l5.25-5.25m1.645-4.188-1.645,1.645-5.25-5.25v4.188H3V3h8.167V5.333H6.978l5.25,5.25m4.188,4.188,5.25,5.25V15.833H24V24H15.833V21.667h4.188l-5.25-5.25,1.645-1.645m-1.645-4.188,5.25-5.25H15.833V3H24v8.167H21.667V6.978l-5.25,5.25Z" transform="translate(1758 13.148)" fill=""/>
  </g>
</svg>
