<svg id="icone_notificacao" data-name="icone/notificacao" xmlns="http://www.w3.org/2000/svg" width="16.41" height="20" viewBox="0 0 16.41 20">
  <path id="icone_notificacao-2" data-name="icone/notificacao" d="M14.205,23.75A2.057,2.057,0,0,0,16.256,21.7h-4.1A2.057,2.057,0,0,0,14.205,23.75ZM20.359,17.6V12.468c0-3.149-1.672-5.785-4.615-6.482v-.7a1.538,1.538,0,1,0-3.077,0v.7c-2.933.7-4.615,3.323-4.615,6.482V17.6L6,19.647v1.026H22.41V19.647Zm-2.051,1.026H10.1V12.468c0-2.544,1.549-4.615,4.1-4.615s4.1,2.072,4.1,4.615Z" transform="translate(-6 -3.75)" fill="#3a5138"/>
</svg>
